HIERARCHY
ROOT joint_Root
{
	OFFSET 0.0 0.0 0.0
	CHANNELS 6 Xposition Yposition Zposition Zrotation Xrotation Yrotation 
	JOINT Hips
	{
		OFFSET 4.5925 91.4895 -427.239
		CHANNELS 6 Xposition Yposition Zposition Zrotation Xrotation Yrotation 
		JOINT Spine
		{
			OFFSET 15.7357 0.0 0.0
			CHANNELS 6 Xposition Yposition Zposition Zrotation Xrotation Yrotation 
			JOINT Chest
			{
				OFFSET 8.98455 -0.406207 0.0
				CHANNELS 6 Xposition Yposition Zposition Zrotation Xrotation Yrotation 
				JOINT Neck
				{
					OFFSET 16.3773 0.0 0.0
					CHANNELS 6 Xposition Yposition Zposition Zrotation Xrotation Yrotation 
					JOINT Head
					{
						OFFSET 6.45672 0.0 0.0
						CHANNELS 6 Xposition Yposition Zposition Zrotation Xrotation Yrotation 
						End Site
						{
							OFFSET 0.0 0.0 0.0
						}
					}
				}
				JOINT Shoulder_L
				{
					OFFSET 12.9942 -0.242716 4.98039
					CHANNELS 6 Xposition Yposition Zposition Zrotation Xrotation Yrotation 
					JOINT UpperArm_L
					{
						OFFSET 5.34809 0.0 0.0
						CHANNELS 6 Xposition Yposition Zposition Zrotation Xrotation Yrotation 
						JOINT LowerArm_L
						{
							OFFSET 24.3286 1.87007e-05 0.0
							CHANNELS 6 Xposition Yposition Zposition Zrotation Xrotation Yrotation 
							JOINT Hand_L
							{
								OFFSET 22.2916 0.0 0.0
								CHANNELS 6 Xposition Yposition Zposition Zrotation Xrotation Yrotation 
								End Site
								{
									OFFSET 0.0 0.0 0.0
								}
							}
						}
					}
				}
				JOINT Shoulder_R
				{
					OFFSET 12.9945 -0.242716 -4.98039
					CHANNELS 6 Xposition Yposition Zposition Zrotation Xrotation Yrotation 
					JOINT UpperArm_R
					{
						OFFSET -5.34813 0.0 0.0
						CHANNELS 6 Xposition Yposition Zposition Zrotation Xrotation Yrotation 
						JOINT LowerArm_R
						{
							OFFSET -24.3289 0.000322201 0.0
							CHANNELS 6 Xposition Yposition Zposition Zrotation Xrotation Yrotation 
							JOINT Hand_R
							{
								OFFSET -22.2915 -0.000108084 0.0
								CHANNELS 6 Xposition Yposition Zposition Zrotation Xrotation Yrotation 
								End Site
								{
									OFFSET 0.0 0.0 0.0
								}
							}
						}
					}
				}
			}
		}
		JOINT UpperLeg_L
		{
			OFFSET -2.19248 -6.46944 0.0
			CHANNELS 6 Xposition Yposition Zposition Zrotation Xrotation Yrotation 
			JOINT LowerLeg_L
			{
				OFFSET 39.0811 0.0 -1.23785e-05
				CHANNELS 6 Xposition Yposition Zposition Zrotation Xrotation Yrotation 
				JOINT Foot_L
				{
					OFFSET 40.9854 0.0 -1.26872e-05
					CHANNELS 6 Xposition Yposition Zposition Zrotation Xrotation Yrotation 
					JOINT Toes_L
					{
						OFFSET 11.7543 0.0 0.0
						CHANNELS 6 Xposition Yposition Zposition Zrotation Xrotation Yrotation 
						End Site
						{
							OFFSET 0.0 0.0 0.0
						}
					}
				}
			}
		}
		JOINT UpperLeg_R
		{
			OFFSET -2.19251 6.46944 0.0
			CHANNELS 6 Xposition Yposition Zposition Zrotation Xrotation Yrotation 
			JOINT LowerLeg_R
			{
				OFFSET -39.0811 -0.00228153 -0.0401928
				CHANNELS 6 Xposition Yposition Zposition Zrotation Xrotation Yrotation 
				JOINT Foot_R
				{
					OFFSET -40.9854 0.0 0.0
					CHANNELS 6 Xposition Yposition Zposition Zrotation Xrotation Yrotation 
					JOINT Toes_R
					{
						OFFSET -11.7543 0.0 0.0
						CHANNELS 6 Xposition Yposition Zposition Zrotation Xrotation Yrotation 
						End Site
						{
							OFFSET 0.0 0.0 0.0
						}
					}
				}
			}
		}
	}
}
MOTION
Frames:	6
Frame Time:	0.0333333
0.000000 0.000000 0.000000 0.000000 0.000000 -0.000000 -1.153530 90.295200 -5.650410 88.917500 -3.729200 13.901300 15.735700 0.000005 -0.000001 88.471400 76.606400 -88.694800 8.984550 -0.406207 -0.000000 19.011400 -0.721888 -0.327197 16.377300 -0.000001 -0.000001 6.260040 -3.815350 1.949170 6.456720 -0.000001 -0.000000 -4.935450 -2.897290 -0.178884 12.994200 -0.242716 4.980390 -91.137600 5.881880 -79.033700 5.348090 -0.000007 -0.000001 -49.058500 43.079800 -34.931000 24.328600 0.000019 0.000005 6.714630 17.833100 -21.028500 22.291600 -0.000001 0.000005 11.141800 5.266380 0.995529 12.994500 -0.242716 -4.980390 89.465100 10.627200 -87.101700 -5.348130 -0.000001 -0.000004 -58.331400 31.450400 -24.904100 -24.328900 0.000322 -0.000009 2.321180 5.694890 -22.228500 -22.291500 -0.000108 -0.000004 15.305900 5.366190 -1.869040 -2.192480 -6.469440 -0.000000 -173.658000 -9.579010 -1.792500 39.081100 -0.000007 -0.000012 -0.188863 0.272119 34.762700 40.985400 -0.000006 -0.000013 -0.272907 4.746800 -68.853500 11.754300 -0.000000 0.000003 -0.000049 -0.000557 -16.599200 -2.192510 6.469440 -0.000001 175.380000 18.253200 179.422000 -39.081100 -0.002282 -0.040193 -0.162897 0.248011 33.825900 -40.985400 0.000008 0.000006 4.166750 12.445700 -69.256000 -11.754300 -0.000006 -0.000006 -0.004205 -0.053560 -18.751900
0.000000 0.000000 0.000000 0.000000 0.000000 -0.000000 -1.157790 90.284700 -5.595290 88.920200 -3.679590 13.898900 15.735700 0.000005 -0.000001 88.445300 76.690100 -88.687700 8.984550 -0.406207 -0.000000 18.843600 -0.731114 -0.364731 16.377300 -0.000001 -0.000001 6.331230 -3.812120 1.959740 6.456720 -0.000001 -0.000000 -4.927130 -2.926380 -0.213045 12.994200 -0.242716 4.980390 -91.118900 5.794390 -79.051100 5.348090 -0.000007 -0.000001 -49.200200 43.043300 -34.787300 24.328600 0.000019 0.000005 6.725210 17.864300 -21.026400 22.291600 -0.000001 0.000005 11.077100 5.266110 1.003150 12.994500 -0.242716 -4.980390 89.456200 10.497000 -87.017900 -5.348130 -0.000001 -0.000004 -58.735200 30.739500 -24.579500 -24.328900 0.000322 -0.000009 2.459010 5.863500 -22.808500 -22.291500 -0.000108 -0.000004 15.489100 5.367570 -1.911480 -2.192480 -6.469440 -0.000000 -173.664000 -9.511200 -1.792510 39.081100 -0.000007 -0.000012 -0.189782 0.273033 34.803000 40.985400 -0.000006 -0.000013 -0.276419 4.769890 -68.901800 11.754300 -0.000000 0.000003 -0.000046 -0.000522 -16.597900 -2.192510 6.469440 -0.000001 175.356000 18.264800 179.449000 -39.081100 -0.002282 -0.040193 -0.167901 0.255070 33.868400 -40.985400 0.000008 0.000006 4.155040 12.411900 -69.320500 -11.754300 -0.000006 -0.000006 -0.004379 -0.055330 -18.824000
0.000000 0.000000 0.000000 0.000000 0.000000 -0.000000 -1.162210 90.278200 -5.531130 88.911900 -3.640150 13.926700 15.735700 0.000005 -0.000001 88.471800 76.761900 -88.733600 8.984550 -0.406207 -0.000000 18.700100 -0.717050 -0.406913 16.377300 -0.000001 -0.000001 6.386310 -3.801480 1.961450 6.456720 -0.000001 -0.000000 -5.004020 -2.945370 -0.201876 12.994200 -0.242716 4.980390 -91.101700 5.693770 -79.030200 5.348090 -0.000007 -0.000001 -49.341800 43.022500 -34.657700 24.328600 0.000019 0.000005 6.713330 17.831700 -21.026200 22.291600 -0.000001 0.000005 11.031600 5.266630 0.989154 12.994500 -0.242716 -4.980390 89.432900 10.400200 -86.861600 -5.348130 -0.000001 -0.000004 -59.225100 29.616100 -24.174000 -24.328900 0.000322 -0.000009 2.746300 6.281390 -23.681500 -22.291500 -0.000108 -0.000004 15.739800 5.368320 -1.934790 -2.192480 -6.469440 -0.000000 -173.653000 -9.493080 -1.728550 39.081100 -0.000007 -0.000012 -0.190154 0.273306 34.828800 40.985400 -0.000006 -0.000013 -0.277585 4.754670 -68.964500 11.754300 -0.000000 0.000003 -0.000054 -0.000603 -16.600900 -2.192510 6.469440 -0.000001 175.336000 18.272400 179.525000 -39.081100 -0.002282 -0.040193 -0.167540 0.254393 33.882900 -40.985400 0.000008 0.000006 4.145100 12.389700 -69.375400 -11.754300 -0.000006 -0.000006 -0.004179 -0.053289 -18.740900
0.000000 0.000000 0.000000 0.000000 0.000000 -0.000000 -1.165790 90.271700 -5.510620 88.898100 -3.642370 13.842900 15.735700 0.000005 -0.000001 88.489700 76.861900 -88.774900 8.984550 -0.406207 -0.000000 18.500200 -0.705748 -0.456693 16.377300 -0.000001 -0.000001 6.423240 -3.768050 1.980410 6.456720 -0.000001 -0.000000 -5.090470 -2.902750 -0.222767 12.994200 -0.242716 4.980390 -91.076800 5.565370 -79.032000 5.348090 -0.000007 -0.000001 -49.654000 42.882600 -34.401500 24.328600 0.000019 0.000005 6.698000 17.795500 -21.019600 22.291600 -0.000001 0.000005 10.971100 5.267310 0.970627 12.994500 -0.242716 -4.980390 89.419900 10.289300 -86.755500 -5.348130 -0.000001 -0.000004 -59.636800 28.343400 -23.744400 -24.328900 0.000322 -0.000009 2.937290 6.308280 -25.039500 -22.291500 -0.000108 -0.000004 16.174900 5.371080 -2.020150 -2.192480 -6.469440 -0.000000 -173.650000 -9.485230 -1.820340 39.081100 -0.000007 -0.000012 -0.190695 0.273695 34.867000 40.985400 -0.000006 -0.000013 -0.278492 4.764490 -68.995300 11.754300 -0.000000 0.000003 -0.000053 -0.000597 -16.600700 -2.192510 6.469440 -0.000001 175.400000 18.190300 179.433000 -39.081100 -0.002282 -0.040193 -0.170284 0.258240 33.907300 -40.985400 0.000008 0.000006 4.120270 12.303300 -69.396200 -11.754300 -0.000006 -0.000006 -0.004396 -0.055498 -18.830900
0.000000 0.000000 0.000000 0.000000 0.000000 -0.000000 -1.168530 90.267600 -5.490690 88.900900 -3.609820 13.814100 15.735700 0.000005 -0.000001 88.440700 76.937100 -88.755400 8.984550 -0.406207 -0.000000 18.349100 -0.726307 -0.513506 16.377300 -0.000001 -0.000001 6.445660 -3.720350 1.962930 6.456720 -0.000001 -0.000000 -5.186080 -2.874600 -0.233603 12.994200 -0.242716 4.980390 -91.058200 5.450320 -78.994900 5.348090 -0.000007 -0.000001 -49.866700 42.844800 -34.217300 24.328600 0.000019 0.000005 6.693520 17.813000 -20.988400 22.291600 -0.000001 0.000005 11.056800 5.268930 0.927015 12.994500 -0.242716 -4.980390 89.406700 10.164300 -86.641500 -5.348130 -0.000001 -0.000004 -59.904600 26.992600 -23.381500 -24.328900 0.000322 -0.000009 2.988100 5.928190 -26.821000 -22.291500 -0.000108 -0.000004 16.607900 5.376500 -2.188680 -2.192480 -6.469440 -0.000000 -173.675000 -9.446690 -1.850270 39.081100 -0.000007 -0.000012 -0.186758 0.267857 34.885800 40.985400 -0.000006 -0.000013 -0.284709 4.729340 -69.017200 11.754300 -0.000000 0.000003 -0.000052 -0.000587 -16.600300 -2.192510 6.469440 -0.000001 175.407000 18.188000 179.408000 -39.081100 -0.002282 -0.040193 -0.168710 0.255711 33.926800 -40.985400 0.000008 0.000006 4.117710 12.282400 -69.421000 -11.754300 -0.000006 -0.000006 -0.004195 -0.053450 -18.747400
0.000000 0.000000 0.000000 0.000000 0.000000 -0.000000 -1.172390 90.254800 -5.485140 88.885000 -3.593610 13.757700 15.735700 0.000005 -0.000001 88.402200 77.015400 -88.742700 8.984550 -0.406207 -0.000000 18.191900 -0.741365 -0.563698 16.377300 -0.000001 -0.000001 6.485280 -3.683900 1.967020 6.456720 -0.000001 -0.000000 -5.299860 -2.831080 -0.278303 12.994200 -0.242716 4.980390 -91.040100 5.364210 -79.009900 5.348090 -0.000007 -0.000001 -50.031700 42.787000 -33.978300 24.328600 0.000019 0.000005 6.748850 17.886500 -21.071500 22.291600 -0.000001 0.000005 11.101600 5.266690 0.987518 12.994500 -0.242716 -4.980390 89.385900 10.005500 -86.469700 -5.348130 -0.000001 -0.000004 -60.006900 25.717600 -23.142600 -24.328900 0.000322 -0.000009 3.135740 5.657520 -29.069800 -22.291500 -0.000108 -0.000004 17.007300 5.381480 -2.344730 -2.192480 -6.469440 -0.000000 -173.672000 -9.405520 -1.947410 39.081100 -0.000007 -0.000012 -0.191211 0.273527 34.956200 40.985400 -0.000006 -0.000013 -0.293348 4.712090 -69.049200 11.754300 -0.000000 0.000003 -0.000049 -0.000560 -16.599300 -2.192510 6.469440 -0.000001 175.470000 18.115400 179.316000 -39.081100 -0.002282 -0.040193 -0.169656 0.256574 33.982900 -40.985400 0.000008 0.000006 4.093650 12.172900 -69.445000 -11.754300 -0.000006 -0.000006 -0.004385 -0.055386 -18.826300
